<svg width="361" height="40" viewBox="0 0 361 40" fill="none" xmlns="http://www.w3.org/2000/svg">
<g clip-path="url(#clip0_4558_167143)">
<path d="M112.578 25.3158C112.578 20.0343 111.334 15.8558 108.884 12.8869C106.384 9.86071 102.885 8.32666 98.4697 8.32666C94.0546 8.32666 90.3721 9.91795 87.6588 13.0548C85.0982 16.016 83.8008 19.7825 83.8008 24.2473C83.8008 28.8685 84.9761 32.6121 87.3039 35.3864C89.8683 38.4202 93.631 39.9657 98.4697 39.9657C102.286 39.9657 105.407 38.9849 107.766 37.0464C109.769 35.3864 111.292 32.9746 112.284 29.8836L112.57 28.9983H107.109L106.976 29.5249C106.574 31.3319 105.506 32.9209 103.984 33.9744C102.36 35.0653 100.437 35.6241 98.4812 35.5734C95.4283 35.5734 93.0891 34.627 91.3948 32.6732C89.9218 30.9788 89.1051 28.735 89.0135 25.9989H112.589L112.578 25.3158ZM98.4583 12.7037C101.32 12.7037 103.492 13.6539 105.106 15.6039C106.464 17.2372 107.205 19.3475 107.319 21.8737H89.1013C89.4372 19.5848 90.397 17.4327 91.8756 15.6535C92.6801 14.6952 93.6915 13.9318 94.8337 13.4209C95.9759 12.9099 97.2191 12.6647 98.4697 12.7037H98.4583Z" fill="#F97316"/>
<path d="M127.205 13.4592H133.925V8.49835H126.831V5.2089C126.831 -0.0114775 121.717 -0.0114746 121.717 -0.0114746V8.49835H116.81V13.4592H121.717V28.0671C121.717 31.6733 122.896 34.5926 125.217 36.7525C127.537 38.9124 130.349 39.958 133.91 39.958V35.1116C131.456 35.1116 129.639 34.3064 128.346 32.654C127.306 31.2884 126.767 29.6071 126.819 27.8916V13.4592H127.205Z" fill="#F97316"/>
<path d="M66.2621 13.1807C68.7197 13.1807 70.5438 13.9821 71.8412 15.6344C72.88 16.999 73.4189 18.6788 73.3677 20.3931V34.7415C73.3677 39.958 78.4812 39.958 78.4812 39.958V20.2213C78.4812 16.6648 77.3364 13.7646 75.0696 11.5818C72.7456 9.39134 69.876 8.32666 66.2927 8.32666C62.7094 8.32666 59.8969 9.37608 57.6035 11.536C55.31 13.6959 54.1003 16.6151 54.1003 20.2213V39.958H59.2101V20.4045C59.1564 18.6888 59.6955 17.0069 60.7365 15.6421C62.0072 13.9821 63.8084 13.1807 66.2621 13.1807Z" fill="#F97316"/>
<path d="M161.607 11.5818C159.283 9.39134 156.42 8.32666 152.83 8.32666C150.055 8.32666 147.727 8.97538 145.747 10.2767V0H140.618V40.0038H145.728V20.4045C145.672 18.6885 146.212 17.006 147.254 15.642C148.548 13.9935 150.364 13.1921 152.818 13.1921C155.272 13.1921 157.096 13.9935 158.393 15.6459C159.432 17.0104 159.971 18.6903 159.92 20.4045V34.7987C159.92 40.0153 165.037 40.0153 165.037 40.0153V20.2213C165.01 16.6648 163.858 13.7646 161.607 11.5818Z" fill="#F97316"/>
<path d="M177.569 32.5549C178.026 33.3053 178.662 33.9307 179.42 34.3752C180.222 34.842 181.096 35.171 182.007 35.3483C182.983 35.5453 183.977 35.6438 184.972 35.6421C185.798 35.6384 186.623 35.5785 187.441 35.4628C188.261 35.3587 189.062 35.1416 189.823 34.8178C190.528 34.519 191.144 34.0432 191.612 33.4364C192.104 32.7658 192.353 31.9474 192.318 31.1163C192.349 30.5411 192.23 29.9678 191.973 29.4526C191.715 28.9374 191.328 28.4981 190.849 28.1779C189.721 27.4441 188.481 26.8977 187.178 26.5599C185.708 26.1477 184.111 25.7763 182.389 25.4456C180.748 25.1368 179.142 24.6637 177.596 24.0336C176.193 23.472 174.938 22.5975 173.925 21.4769C172.945 20.3804 172.456 18.854 172.456 16.8976C172.418 15.5136 172.775 14.1475 173.486 12.9594C174.154 11.8806 175.058 10.9673 176.13 10.2882C177.253 9.58437 178.482 9.06876 179.771 8.76174C181.088 8.43337 182.44 8.26552 183.797 8.26184C185.395 8.25046 186.991 8.39876 188.559 8.7045C189.927 8.9654 191.232 9.48338 192.406 10.2309C193.531 10.9678 194.451 11.979 195.077 13.1693C195.797 14.6044 196.198 16.1783 196.253 17.7829H191.261C191.22 16.9182 190.957 16.0786 190.498 15.3445C190.076 14.7067 189.513 14.1742 188.853 13.7875C188.167 13.3889 187.423 13.1004 186.648 12.9327C185.847 12.7572 185.029 12.6689 184.209 12.6694C183.451 12.6717 182.695 12.7303 181.946 12.8449C181.225 12.951 180.522 13.1592 179.859 13.4631C179.266 13.7313 178.743 14.1337 178.332 14.6385C177.921 15.1873 177.714 15.8617 177.745 16.5465C177.734 16.9485 177.81 17.3479 177.968 17.7179C178.125 18.0879 178.36 18.4198 178.657 18.6912C179.334 19.3028 180.121 19.7806 180.977 20.0993C182.008 20.4997 183.07 20.815 184.152 21.0418C185.327 21.2963 186.503 21.5608 187.678 21.8356C188.93 22.1103 190.153 22.4423 191.349 22.8316C192.478 23.1926 193.547 23.7172 194.524 24.3885C195.438 25.0296 196.2 25.8633 196.756 26.8308C197.358 27.9473 197.652 29.2038 197.607 30.4713C197.668 32.0755 197.271 33.6637 196.462 35.0506C195.712 36.2552 194.685 37.2638 193.467 37.9928C192.179 38.7566 190.765 39.2839 189.292 39.5498C187.771 39.8404 186.227 39.9874 184.678 39.9886C183.057 39.9961 181.44 39.8181 179.859 39.4582C178.411 39.1414 177.036 38.5536 175.806 37.7257C174.621 36.9152 173.653 35.8263 172.986 34.5545C172.236 33.0681 171.834 31.4303 171.811 29.7654H176.806C176.812 30.7459 177.076 31.7076 177.569 32.5549Z" fill="#F97316"/>
<path d="M224.64 37.4052C222.371 39.1249 219.511 39.9861 216.062 39.9886C213.897 40.0384 211.745 39.6382 209.742 38.8133C208.015 38.0702 206.478 36.9456 205.247 35.5238C203.996 34.0457 203.066 32.3239 202.515 30.4675C201.888 28.3887 201.542 26.235 201.488 24.0642C201.464 21.908 201.822 19.7646 202.545 17.7333C203.203 15.8922 204.211 14.1959 205.514 12.7381C206.774 11.3354 208.315 10.2134 210.036 9.44484C211.839 8.65038 213.79 8.24968 215.76 8.2695C218.462 8.2695 220.705 8.82791 222.488 9.94475C224.226 11.0176 225.694 12.4761 226.777 14.2073C227.859 15.936 228.617 17.8472 229.014 19.8474C229.413 21.7602 229.579 23.7142 229.51 25.6669H206.777C206.729 26.9471 206.887 28.2266 207.247 29.4563C207.583 30.622 208.163 31.7029 208.949 32.6274C209.771 33.5779 210.796 34.3317 211.948 34.8331C213.303 35.4106 214.765 35.6916 216.237 35.6574C218.351 35.6574 220.085 35.1677 221.439 34.1882C222.792 33.2088 223.682 31.7192 224.11 29.7196H229.044C228.383 33.1184 226.915 35.6803 224.64 37.4052ZM223.427 17.8936C222.487 15.7934 220.765 14.1423 218.628 13.2915C216.49 12.4407 214.104 12.4571 211.979 13.3372C210.972 13.7663 210.063 14.396 209.307 15.188C208.558 15.9834 207.96 16.9094 207.544 17.9203C207.109 18.9786 206.851 20.1017 206.781 21.2441H224.228C224.152 20.0901 223.881 18.9574 223.427 17.8936Z" fill="#F97316"/>
<path d="M268.014 39.3436L256.73 8.9563H262.313L270.834 34.2835H270.952L279.237 8.9563H284.484L273.375 39.3398L268.014 39.3436Z" fill="#F97316"/>
<path d="M320.256 14.2493C319.001 13.1935 317.317 12.6644 315.203 12.6618C313.634 12.6091 312.078 12.953 310.677 13.6616C309.504 14.29 308.504 15.1984 307.766 16.3062C307.016 17.4619 306.488 18.7468 306.209 20.0955C305.893 21.5537 305.736 23.0417 305.739 24.5336C305.736 25.92 305.903 27.3015 306.235 28.6473C306.539 29.9158 307.067 31.1201 307.792 32.2039C308.501 33.2446 309.448 34.1004 310.555 34.6996C311.811 35.3571 313.214 35.6816 314.631 35.6422C317.096 35.6422 319.024 34.9947 320.416 33.6998C321.808 32.4049 322.66 30.5833 322.973 28.2352H328.086C327.537 31.9978 326.138 34.8968 323.889 36.932C321.64 38.9672 318.574 39.9848 314.692 39.9848C312.583 40.0284 310.486 39.6495 308.525 38.8706C306.808 38.1771 305.278 37.091 304.056 35.6994C302.828 34.267 301.908 32.5963 301.355 30.7919C300.729 28.7656 300.421 26.6543 300.443 24.5336C300.427 22.3766 300.724 20.2287 301.324 18.1569C301.863 16.2732 302.771 14.5155 303.995 12.9862C305.21 11.5021 306.747 10.3155 308.491 9.51738C310.469 8.63983 312.616 8.20859 314.78 8.25426C316.415 8.24299 318.045 8.45091 319.626 8.87246C321.066 9.25195 322.421 9.89925 323.621 10.7805C324.79 11.6565 325.761 12.768 326.472 14.0432C327.256 15.4877 327.737 17.0772 327.884 18.7141H322.725C322.333 16.7883 321.51 15.3 320.256 14.2493Z" fill="#F97316"/>
<path d="M355.161 37.405C352.889 39.1247 350.03 39.9859 346.583 39.9885C344.418 40.0383 342.266 39.638 340.263 38.8131C338.536 38.069 337 36.9446 335.768 35.5237C334.517 34.0455 333.587 32.3237 333.036 30.4674C332.408 28.3885 332.063 26.2348 332.009 24.064C331.985 21.9079 332.343 19.7645 333.066 17.7332C333.724 15.892 334.732 14.1957 336.035 12.7379C337.296 11.3351 338.838 10.2131 340.561 9.44466C342.363 8.6493 344.315 8.24856 346.285 8.26932C348.987 8.26932 351.229 8.82773 353.013 9.94457C354.751 11.0174 356.218 12.4759 357.302 14.2071C358.384 15.9358 359.141 17.847 359.538 19.8473C359.939 21.7599 360.106 23.7139 360.038 25.6668H337.294C337.248 26.9468 337.406 28.2261 337.764 29.4561C338.1 30.6226 338.681 31.7039 339.47 32.6273C340.291 33.5773 341.314 34.331 342.465 34.8329C343.82 35.4104 345.282 35.6914 346.754 35.6572C348.871 35.6572 350.605 35.1675 351.956 34.188C353.307 33.2086 354.197 31.719 354.627 29.7194H359.561C358.902 33.1183 357.436 35.6801 355.161 37.405ZM353.959 17.8934C353.306 16.3257 352.198 14.9895 350.779 14.057C349.359 13.1245 347.693 12.6385 345.995 12.6616C344.796 12.6432 343.606 12.8732 342.499 13.3371C341.493 13.767 340.584 14.3967 339.828 15.1878C339.078 15.9832 338.481 16.9093 338.065 17.9201C337.629 18.9785 337.372 20.1015 337.302 21.2439H354.757C354.681 20.0902 354.412 18.9574 353.959 17.8934Z" fill="#F97316"/>
<path d="M294.341 8.9563V39.3398H289.346V8.9563H294.341Z" fill="#F97316"/>
<path d="M291.845 5.22038C293.287 5.22038 294.455 4.05176 294.455 2.61019C294.455 1.16862 293.287 0 291.845 0C290.403 0 289.235 1.16862 289.235 2.61019C289.235 4.05176 290.403 5.22038 291.845 5.22038Z" fill="#F97316"/>
<path d="M254.604 12.158C252.383 10.063 249.643 9.04028 246.19 9.04028C242.736 9.04028 240.061 10.0439 237.871 12.0931C235.68 14.1424 234.512 16.9624 234.512 20.4122V39.3246H239.405V20.5991C239.351 18.9566 239.866 17.3458 240.862 16.0389C242.103 14.4553 243.843 13.6882 246.205 13.6882C248.567 13.6882 250.307 14.4515 251.547 16.0389L254.604 12.158Z" fill="#F97316"/>
<path d="M28.2656 33.8179L15.4436 20.8661L3.61381 32.8181L0 29.2424L15.4436 13.6423L28.1473 26.4719L37.489 16.409L41.2135 19.8663L28.2656 33.8179Z" fill="#F97316"/>
</g>
<defs>
<clipPath id="clip0_4558_167143">
<rect width="360.061" height="40" fill="white"/>
</clipPath>
</defs>
</svg>
