<svg width="500" height="120" viewBox="0 0 500 120" fill="none" xmlns="http://www.w3.org/2000/svg">
<g clip-path="url(#clip0_2332_567)">
<mask id="mask0_2332_567" style="mask-type:luminance" maskUnits="userSpaceOnUse" x="-264" y="-304" width="1028" height="727">
<path d="M-263.007 -303.221H763.007V422.32H-263.007V-303.221Z" fill="white"/>
</mask>
<g mask="url(#mask0_2332_567)">
<path d="M11.5533 14.2938C11.5533 26.0746 0 26.0746 0 26.0746V1.72226e-05H11.5533V14.2938Z" fill="white"/>
</g>
<mask id="mask1_2332_567" style="mask-type:luminance" maskUnits="userSpaceOnUse" x="-264" y="-304" width="1028" height="727">
<path d="M-263.007 -303.221H763.007V422.32H-263.007V-303.221Z" fill="white"/>
</mask>
<g mask="url(#mask1_2332_567)">
<path d="M111.818 35.3843C118.285 35.3843 123.184 37.5268 126.831 41.9305C129.902 45.6165 131.574 50.3848 131.833 56.0908H90.6351C91.6133 50.4486 93.7048 45.7345 96.9047 42.04C100.795 37.5621 105.667 35.3843 111.818 35.3843ZM143.681 63.859C143.681 51.9352 140.867 42.4959 135.336 35.7937C129.694 28.9613 121.786 25.4952 111.818 25.4952C101.741 25.4952 93.5316 29.0923 87.4016 36.172C81.6216 42.8596 78.688 51.3647 78.688 61.4469C78.688 71.8875 81.3492 80.3444 86.6002 86.6088C92.3923 93.4601 100.887 96.934 111.818 96.934C120.428 96.934 127.486 94.7192 132.812 90.3378C137.339 86.5873 140.778 81.1441 143.02 74.1601L143.661 72.1625H131.327L131.027 73.3543C129.941 77.7047 127.721 81.0011 124.249 83.4193C120.796 85.8194 116.605 87.0268 111.818 87.0268C104.89 87.0268 99.6452 84.8938 95.8162 80.4788C92.4863 76.6499 90.6756 71.5851 90.4352 65.4077H143.681V63.859Z" fill="white"/>
</g>
<mask id="mask2_2332_567" style="mask-type:luminance" maskUnits="userSpaceOnUse" x="-264" y="-304" width="1028" height="727">
<path d="M-263.007 -303.221H763.007V422.32H-263.007V-303.221Z" fill="white"/>
</mask>
<g mask="url(#mask2_2332_567)">
<path d="M176.712 37.0844H191.888V25.906H175.864V18.4782C175.864 6.69395 164.32 6.69395 164.32 6.69395V25.906H153.235V37.0844H164.32V70.0767C164.32 78.2173 166.983 84.8135 172.22 89.693C177.397 94.5561 183.812 96.9338 191.854 96.9338V85.9812C186.31 85.9812 182.211 84.1706 179.291 80.4372C177.02 77.5606 175.864 73.9436 175.864 69.6811V37.0844H176.712Z" fill="white"/>
</g>
<mask id="mask3_2332_567" style="mask-type:luminance" maskUnits="userSpaceOnUse" x="-264" y="-304" width="1028" height="727">
<path d="M-263.007 -303.221H763.007V422.32H-263.007V-303.221Z" fill="white"/>
</mask>
<g mask="url(#mask3_2332_567)">
<path d="M307.283 35.3843C313.745 35.3843 318.645 37.5268 322.273 41.9305C325.353 45.6165 327.046 50.3848 327.28 56.0908H286.092C287.068 50.4486 289.159 45.7345 292.348 42.04C296.246 37.5621 301.126 35.3843 307.283 35.3843ZM339.131 63.859C339.131 51.9352 336.33 42.4959 330.787 35.7937C325.146 28.9613 317.248 25.4952 307.283 25.4952C297.203 25.4952 288.972 29.0923 282.851 36.172C277.069 42.8596 274.148 51.3647 274.148 61.4469C274.148 71.8875 276.806 80.3444 282.056 86.6088C287.852 93.4601 296.346 96.934 307.283 96.934C315.875 96.934 322.946 94.7192 328.27 90.3378C332.796 86.5873 336.229 81.1441 338.481 74.1601L339.131 72.1625H326.787L326.495 73.3543C325.408 77.7047 323.171 81.0011 319.71 83.4193C316.251 85.8194 312.071 87.0268 307.283 87.0268C300.336 87.0268 295.097 84.8938 291.266 80.4788C287.967 76.6499 286.148 71.5851 285.878 65.4077H339.131V63.859Z" fill="white"/>
</g>
<mask id="mask4_2332_567" style="mask-type:luminance" maskUnits="userSpaceOnUse" x="-264" y="-304" width="1028" height="727">
<path d="M-263.007 -303.221H763.007V422.32H-263.007V-303.221Z" fill="white"/>
</mask>
<g mask="url(#mask4_2332_567)">
<path d="M39.0836 36.4565C44.631 36.4565 48.7522 38.2646 51.684 41.9979C53.9376 44.8694 55.0855 48.4829 55.0855 52.7411V85.1499C55.0855 96.9341 66.6311 96.9341 66.6311 96.9341V52.3541C66.6311 44.3256 64.0353 37.7742 58.93 32.8447C53.6791 27.8988 47.2018 25.4953 39.0836 25.4953C31.05 25.4953 24.6364 27.8618 19.4579 32.7465C14.2078 37.6182 11.5535 44.2144 11.5535 52.3541V96.9341H23.0852V52.7411C23.0852 48.476 24.2409 44.8694 26.5169 41.9944C29.4358 38.2646 33.544 36.4565 39.0836 36.4565Z" fill="white"/>
</g>
<mask id="mask5_2332_567" style="mask-type:luminance" maskUnits="userSpaceOnUse" x="-264" y="-304" width="1028" height="727">
<path d="M-263.007 -303.221H763.007V422.32H-263.007V-303.221Z" fill="white"/>
</mask>
<g mask="url(#mask5_2332_567)">
<path d="M254.368 32.8444C249.125 27.8994 242.66 25.4958 234.542 25.4958C228.274 25.4958 223.015 26.9583 218.543 29.8988V3.77849H207.008V52.3547V72.1623H218.543V52.7416C218.543 48.4766 219.695 44.8691 221.97 41.9941C224.896 38.2643 228.997 36.4562 234.542 36.4562C240.07 36.4562 244.204 38.2643 247.128 41.9976C249.392 44.8691 250.538 48.4826 250.538 52.7416V85.2495C250.538 97.0295 262.093 97.0295 262.093 97.0295V52.3547C262.093 44.3253 259.485 37.7747 254.368 32.8444Z" fill="white"/>
</g>
<mask id="mask6_2332_567" style="mask-type:luminance" maskUnits="userSpaceOnUse" x="-264" y="-304" width="1028" height="727">
<path d="M-263.007 -303.221H763.007V422.32H-263.007V-303.221Z" fill="white"/>
</mask>
<g mask="url(#mask6_2332_567)">
<path d="M402.171 62.3694C399.57 60.3614 395.569 58.724 390.25 57.502L377.763 54.6288C372.799 53.492 369.619 52.5156 368.025 51.634C365.392 50.2353 364.031 48.0618 364.031 45.1809C364.031 42.1258 365.373 39.7102 368.013 38.0081C370.518 36.4008 373.878 35.583 378.001 35.583C381.667 35.583 384.817 36.2026 387.331 37.4376C390.962 39.2189 393.041 42.1982 393.549 46.2598H405.831C405.37 39.6412 402.761 34.6979 397.86 31.1508C392.691 27.4106 386.367 25.4956 379.033 25.4956C370.228 25.4956 363.502 27.5002 359.02 31.4369C354.579 35.3374 352.321 40.3143 352.321 46.2245C352.321 52.7664 354.524 57.4158 359.072 60.4623C361.79 62.3057 366.929 64.0344 374.342 65.6451L382.049 67.2981C386.699 68.2676 390.048 69.3785 392.248 70.6824C394.644 72.1267 395.859 74.2106 395.859 76.8752C395.859 81.2687 393.494 84.3065 388.804 85.9052C386.469 86.6903 383.428 87.0902 379.734 87.0902C373.455 87.0902 368.926 85.5131 366.265 82.433C364.926 80.868 363.98 78.5954 363.459 75.6601H351.188C351.422 82.0745 353.998 87.2168 358.828 90.9381C363.98 94.9196 371.218 96.9336 380.308 96.9336C389.213 96.9336 396.165 94.8937 400.966 90.8709C405.745 86.885 408.17 81.8185 408.17 75.7842C408.17 69.8593 406.197 65.4745 402.171 62.3694Z" fill="white"/>
</g>
<mask id="mask7_2332_567" style="mask-type:luminance" maskUnits="userSpaceOnUse" x="-264" y="-304" width="1028" height="727">
<path d="M-263.007 -303.221H763.007V422.32H-263.007V-303.221Z" fill="white"/>
</mask>
<g mask="url(#mask7_2332_567)">
<path d="M493.999 62.3694C491.4 60.3614 487.398 58.724 482.079 57.502L469.59 54.6288C464.627 53.492 461.449 52.5156 459.854 51.634C457.218 50.2353 455.856 48.0618 455.856 45.1809C455.856 42.1258 457.203 39.7102 459.838 38.0081C462.346 36.4008 465.706 35.583 469.83 35.583C473.498 35.583 476.647 36.2026 479.155 37.4376C482.787 39.2189 484.869 42.1982 485.379 46.2598H497.658C497.194 39.6412 494.59 34.6979 489.687 31.1508C484.514 27.4106 478.192 25.4956 470.862 25.4956C462.057 25.4956 455.329 27.5002 450.845 31.4369C446.405 35.3374 444.149 40.3143 444.149 46.2245C444.149 52.7664 446.355 57.4158 450.901 60.4623C453.619 62.3057 458.759 64.0344 466.169 65.6451L473.873 67.2981C478.526 68.2676 481.874 69.3785 484.076 70.6824C486.469 72.1267 487.687 74.2106 487.687 76.8752C487.687 81.2687 485.325 84.3065 480.629 85.9052C478.298 86.6903 475.252 87.0902 471.561 87.0902C465.284 87.0902 460.758 85.5131 458.088 82.433C456.753 80.868 455.809 78.5954 455.285 75.6601H443.013C443.25 82.0745 445.823 87.2168 450.657 90.9381C455.809 94.9196 463.047 96.9336 472.138 96.9336C481.037 96.9336 487.986 94.8937 492.788 90.8709C497.574 86.885 500 81.8185 500 75.7842C500 69.8593 498.026 65.4745 493.999 62.3694Z" fill="white"/>
</g>
<mask id="mask8_2332_567" style="mask-type:luminance" maskUnits="userSpaceOnUse" x="-264" y="-304" width="1028" height="727">
<path d="M-263.007 -303.221H763.007V422.32H-263.007V-303.221Z" fill="white"/>
</mask>
<g mask="url(#mask8_2332_567)">
<path d="M419.422 25.3643C419.422 25.3643 430.96 25.3643 430.96 37.1485V96.9393H419.422V25.3643Z" fill="white"/>
</g>
<mask id="mask9_2332_567" style="mask-type:luminance" maskUnits="userSpaceOnUse" x="-264" y="-304" width="1028" height="727">
<path d="M-263.007 -303.221H763.007V422.32H-263.007V-303.221Z" fill="white"/>
</mask>
<g mask="url(#mask9_2332_567)">
<path d="M431.63 112.647C431.63 116.214 428.74 119.1 425.175 119.1C421.61 119.1 418.721 116.214 418.721 112.647C418.721 109.083 421.61 106.192 425.175 106.192C428.74 106.192 431.63 109.083 431.63 112.647Z" fill="white"/>
</g>
</g>
<defs>
<clipPath id="clip0_2332_567">
<rect width="500" height="119.1" fill="white"/>
</clipPath>
</defs>
</svg>
